<svg xmlns="http://www.w3.org/2000/svg" viewBox="0 0 862 180">
  <!-- Icon reused as-is from public/icon.svg, scaled up. Wordmark below is
       "VeriCell.net" set in Space Grotesk Bold and converted to path outlines
       so the logo renders identically everywhere without the font installed;
       regenerate via the fontkit-based script if the wordmark text changes. -->
  <g transform="translate(20 20) scale(5.833333333333333)">
    <rect x="1" y="1" width="22" height="22" rx="4" fill="#0c1613"/>
    <rect x="4" y="4" width="16" height="16" rx="2" fill="none" stroke="#00a87e" stroke-width="2"/>
    <rect x="8.5" y="8.5" width="7" height="7" rx="1" fill="#00a87e"/>
  </g>
  <g transform="translate(185.84 132)" fill="#10201a">
    <path d="M23.52 0L2.16 -84L18.48 -84L36.24 -10.2L37.92 -10.2L55.68 -84L72 -84L50.64 0Z M106.08 1.68Q97.2 1.68 90.42 -2.1Q83.64 -5.88 79.86 -12.78Q76.08 -19.68 76.08 -29.04L76.08 -30.48Q76.08 -39.84 79.8 -46.74Q83.52 -53.64 90.24 -57.42Q96.96 -61.2 105.84 -61.2Q114.6 -61.2 121.08 -57.3Q127.56 -53.4 131.16 -46.5Q134.76 -39.6 134.76 -30.48L134.76 -25.32L91.44 -25.32Q91.68 -19.2 96 -15.36Q100.32 -11.52 106.56 -11.52Q112.92 -11.52 115.92 -14.28Q118.92 -17.04 120.48 -20.4L132.84 -13.92Q131.16 -10.8 127.98 -7.14Q124.8 -3.48 119.52 -0.9Q114.24 1.68 106.08 1.68ZM91.56 -36.6L119.4 -36.6Q118.92 -41.76 115.26 -44.88Q111.6 -48 105.72 -48Q99.6 -48 96 -44.88Q92.4 -41.76 91.56 -36.6Z M148.2 0L148.2 -59.52L163.08 -59.52L163.08 -52.8L165.24 -52.8Q166.56 -56.4 169.62 -58.08Q172.68 -59.76 176.76 -59.76L183.96 -59.76L183.96 -46.32L176.52 -46.32Q170.76 -46.32 167.04 -43.26Q163.32 -40.2 163.32 -33.84L163.32 0Z M195.72 0L195.72 -59.52L210.84 -59.52L210.84 0ZM203.28 -66.48Q199.2 -66.48 196.38 -69.12Q193.56 -71.76 193.56 -76.08Q193.56 -80.4 196.38 -83.04Q199.2 -85.68 203.28 -85.68Q207.48 -85.68 210.24 -83.04Q213 -80.4 213 -76.08Q213 -71.76 210.24 -69.12Q207.48 -66.48 203.28 -66.48Z M259.08 1.68Q243.48 1.68 234.36 -7.02Q225.24 -15.72 225.24 -31.92L225.24 -52.08Q225.24 -68.28 234.36 -76.98Q243.48 -85.68 259.08 -85.68Q274.56 -85.68 283.02 -77.22Q291.48 -68.76 291.48 -54L291.48 -53.28L275.88 -53.28L275.88 -54.48Q275.88 -61.92 271.74 -66.72Q267.6 -71.52 259.08 -71.52Q250.68 -71.52 245.88 -66.36Q241.08 -61.2 241.08 -52.32L241.08 -31.68Q241.08 -22.92 245.88 -17.7Q250.68 -12.48 259.08 -12.48Q267.6 -12.48 271.74 -17.34Q275.88 -22.2 275.88 -29.52L275.88 -31.68L291.48 -31.68L291.48 -30Q291.48 -15.24 283.02 -6.78Q274.56 1.68 259.08 1.68Z M332.04 1.68Q323.16 1.68 316.38 -2.1Q309.6 -5.88 305.82 -12.78Q302.04 -19.68 302.04 -29.04L302.04 -30.48Q302.04 -39.84 305.76 -46.74Q309.48 -53.64 316.2 -57.42Q322.92 -61.2 331.8 -61.2Q340.56 -61.2 347.04 -57.3Q353.52 -53.4 357.12 -46.5Q360.72 -39.6 360.72 -30.48L360.72 -25.32L317.4 -25.32Q317.64 -19.2 321.96 -15.36Q326.28 -11.52 332.52 -11.52Q338.88 -11.52 341.88 -14.28Q344.88 -17.04 346.44 -20.4L358.8 -13.92Q357.12 -10.8 353.94 -7.14Q350.76 -3.48 345.48 -0.9Q340.2 1.68 332.04 1.68ZM317.52 -36.6L345.36 -36.6Q344.88 -41.76 341.22 -44.88Q337.56 -48 331.68 -48Q325.56 -48 321.96 -44.88Q318.36 -41.76 317.52 -36.6Z M374.16 0L374.16 -84L389.28 -84L389.28 0Z M406.08 0L406.08 -84L421.2 -84L421.2 0Z M447.6 1.68Q442.68 1.68 439.38 -1.5Q436.08 -4.68 436.08 -9.72Q436.08 -14.76 439.38 -17.94Q442.68 -21.12 447.6 -21.12Q452.4 -21.12 455.64 -17.94Q458.88 -14.76 458.88 -9.72Q458.88 -4.68 455.64 -1.5Q452.4 1.68 447.6 1.68Z M473.76 0L473.76 -59.52L488.64 -59.52L488.64 -51.72L490.8 -51.72Q492.24 -54.84 496.2 -57.66Q500.16 -60.48 508.2 -60.48Q515.16 -60.48 520.38 -57.3Q525.6 -54.12 528.48 -48.54Q531.36 -42.96 531.36 -35.52L531.36 0L516.24 0L516.24 -34.32Q516.24 -41.04 512.94 -44.4Q509.64 -47.76 503.52 -47.76Q496.56 -47.76 492.72 -43.14Q488.88 -38.52 488.88 -30.24L488.88 0Z M574.8 1.68Q565.92 1.68 559.14 -2.1Q552.36 -5.88 548.58 -12.78Q544.8 -19.68 544.8 -29.04L544.8 -30.48Q544.8 -39.84 548.52 -46.74Q552.24 -53.64 558.96 -57.42Q565.68 -61.2 574.56 -61.2Q583.32 -61.2 589.8 -57.3Q596.28 -53.4 599.88 -46.5Q603.48 -39.6 603.48 -30.48L603.48 -25.32L560.16 -25.32Q560.4 -19.2 564.72 -15.36Q569.04 -11.52 575.28 -11.52Q581.64 -11.52 584.64 -14.28Q587.64 -17.04 589.2 -20.4L601.56 -13.92Q599.88 -10.8 596.7 -7.14Q593.52 -3.48 588.24 -0.9Q582.96 1.68 574.8 1.68ZM560.28 -36.6L588.12 -36.6Q587.64 -41.76 583.98 -44.88Q580.32 -48 574.44 -48Q568.32 -48 564.72 -44.88Q561.12 -41.76 560.28 -36.6Z M637.8 0Q631.92 0 628.26 -3.66Q624.6 -7.32 624.6 -13.44L624.6 -47.04L609.72 -47.04L609.72 -59.52L624.6 -59.52L624.6 -78L639.72 -78L639.72 -59.52L656.04 -59.52L656.04 -47.04L639.72 -47.04L639.72 -16.08Q639.72 -12.48 643.08 -12.48L654.6 -12.48L654.6 0Z"/>
  </g>
</svg>
